<?xml version="1.0" standalone="no"?>
<!DOCTYPE svg PUBLIC "-//W3C//DTD SVG 20010904//EN"
 "http://www.w3.org/TR/2001/REC-SVG-20010904/DTD/svg10.dtd">
<svg version="1.0" xmlns="http://www.w3.org/2000/svg"
 width="1111.000000pt" height="1111.000000pt" viewBox="0 0 1111.000000 1111.000000"
 preserveAspectRatio="xMidYMid meet">
<metadata>
Created by potrace 1.14, written by Peter Selinger 2001-2017
</metadata>
<g transform="translate(0.000000,1111.000000) scale(0.100000,-0.100000)"
fill="#000000" stroke="none">
<path d="M68 10647 c-36 -55 -52 -134 -51 -252 1 -97 9 -147 33 -201 25 -57
26 -58 135 -69 87 -9 137 -15 165 -20 14 -2 45 -7 70 -10 252 -34 467 -109
638 -222 74 -49 205 -180 264 -263 73 -104 151 -260 233 -470 42 -107 83 -208
90 -225 7 -16 43 -106 79 -200 37 -93 71 -179 76 -190 8 -18 98 -243 584
-1470 70 -176 131 -329 136 -340 9 -20 46 -112 324 -815 75 -190 146 -365 156
-390 11 -25 52 -126 90 -225 39 -99 75 -189 80 -200 5 -11 93 -231 195 -490
221 -559 263 -663 275 -690 5 -11 117 -294 250 -630 133 -335 246 -619 251
-630 5 -11 58 -146 119 -300 61 -154 115 -289 120 -300 5 -11 37 -90 70 -175
33 -85 65 -164 70 -175 5 -11 25 -61 44 -111 121 -315 381 -955 400 -984 27
-42 89 -107 130 -138 28 -22 36 -22 341 -22 l313 0 49 39 c60 48 93 84 125
136 14 22 91 207 172 410 81 204 153 384 160 400 8 17 26 62 40 100 15 39 36
89 47 112 10 24 19 47 19 53 0 6 4 18 10 28 5 9 252 625 548 1367 297 743 543
1359 547 1370 4 11 16 40 25 65 38 100 291 726 300 742 5 10 10 22 10 28 0 8
112 291 140 355 5 11 23 56 40 100 17 44 35 89 40 100 5 11 46 112 91 225 125
318 549 1381 564 1415 7 17 52 129 100 250 47 121 95 239 106 262 10 24 19 47
19 53 0 6 4 18 10 28 5 9 105 256 221 547 232 584 303 739 412 901 285 427
619 585 1254 593 l83 1 20 39 c59 117 59 355 0 471 l-20 40 -1785 0 -1785 0
-19 -38 c-28 -56 -41 -111 -44 -198 -5 -116 17 -232 51 -273 19 -24 27 -26
137 -36 44 -3 91 -8 105 -10 14 -2 48 -6 75 -10 150 -18 331 -57 445 -97 240
-84 365 -211 375 -384 5 -96 -13 -162 -119 -434 -48 -124 -126 -324 -173 -445
-46 -121 -89 -229 -94 -240 -8 -20 -219 -563 -264 -680 -12 -33 -89 -231 -170
-440 -81 -209 -199 -513 -261 -675 -63 -162 -118 -304 -123 -315 -5 -11 -35
-87 -67 -170 -31 -82 -62 -163 -69 -180 -7 -16 -75 -190 -150 -385 -76 -195
-178 -458 -227 -585 -49 -126 -98 -255 -110 -285 -11 -30 -27 -68 -33 -85 -13
-31 -128 -327 -262 -675 -41 -107 -81 -208 -88 -225 -22 -51 -56 -127 -82
-185 -14 -30 -33 -75 -43 -100 -10 -25 -31 -74 -48 -110 -16 -36 -40 -90 -52
-120 -13 -30 -26 -59 -30 -63 -4 -4 -66 171 -139 390 -72 219 -160 479 -195
578 -34 99 -75 216 -90 260 -16 44 -64 184 -108 310 -44 127 -86 248 -93 270
-8 22 -53 153 -100 290 -48 138 -127 365 -175 505 -48 140 -122 352 -163 470
-72 205 -115 329 -228 658 -28 81 -73 212 -101 292 -27 80 -68 197 -90 260
-22 63 -55 158 -73 210 -19 52 -41 118 -50 145 -9 28 -19 57 -22 65 -3 8 -7
20 -9 25 -1 6 -35 102 -74 215 -82 235 -238 683 -250 720 -5 14 -45 131 -90
260 -150 432 -168 490 -168 553 2 183 126 291 408 356 152 34 292 48 585 57
110 4 206 11 213 17 7 5 22 42 34 81 40 130 25 350 -29 432 l-15 24 -2433 0
-2433 0 -14 -23z"/>
</g>
</svg>
